<svg xmlns="http://www.w3.org/2000/svg" xmlns:xlink="http://www.w3.org/1999/xlink" version="1.1" x="0px" y="0px" viewBox="0 0 595.3 1052.375" style="enable-background:new 0 0 595.3 841.9;" xml:space="preserve"><g><path d="M560.6,50.3H32.4C18.4,50.3,7,61.7,7,75.7v687.9c0,14,11.4,25.4,25.4,25.4h528.2   c14,0,25.4-11.4,25.4-25.4V75.7C586,61.7,574.6,50.3,560.6,50.3z M567.3,75.7V177H397.4V69h163.3C564.2,69,567.3,72.1,567.3,75.7z    M206.3,177V69h172.3v108H206.3z M378.7,195.7v574.5H206.3V195.7H378.7z M32.4,69h155.2v108H25.7V75.7C25.7,72.1,28.8,69,32.4,69z    M25.7,763.6V195.7h161.9v574.5H32.4C28.7,770.3,25.7,767.3,25.7,763.6z M560.6,770.3H397.4V195.7h169.9v567.9   C567.3,767.3,564.3,770.3,560.6,770.3z"/><path d="M446,132.6l23.3,23.7c3.2,3.2,7.6,5,12.1,5c0.1,0,0.1,0,0.2,0c4.6-0.1,9-2,12.2-5.3l45.6-48.5   c5.7-6.1,5.4-15.9-0.7-21.7c-6.1-5.8-15.9-5.5-21.7,0.7l-35.8,38.1l-13.3-13.5c-5.9-6-15.7-6.1-21.7-0.2S440.1,126.6,446,132.6z"/><path d="M287.8,96.1c-0.3-1.3-0.7-2.6-1.2-3.8c-0.2-0.6-0.9-1-1.5-1l-6.5,0.2c-0.5-0.8-1.1-1.6-1.7-2.3L279,83   c0.2-0.6,0-1.3-0.5-1.8c-1-0.9-2.1-1.6-3.2-2.3c-0.6-0.4-1.3-0.3-1.8,0.1l-5.1,3.9c-0.9-0.4-1.8-0.7-2.8-0.9l-1.8-6.2   c-0.2-0.7-0.8-1.1-1.5-1.1c-1,0-2.9,0-3.9,0c-0.7,0-1.3,0.5-1.5,1.1l-1.8,6.2c-1,0.2-1.9,0.5-2.8,0.9l-5.1-3.9   c-0.5-0.4-1.3-0.4-1.8-0.1c-1.1,0.7-2.2,1.5-3.2,2.4c-0.5,0.4-0.7,1.1-0.5,1.8l2.2,6.1c-0.6,0.7-1.2,1.5-1.7,2.3l-6.5-0.2   c-0.7,0-1.3,0.4-1.5,1c-0.5,1.2-0.9,2.5-1.2,3.8c-0.2,0.6,0.1,1.3,0.7,1.7l5.3,3.6c0,0.5-0.1,1-0.1,1.5c0,0.5,0,0.9,0.1,1.5   l-5.3,3.6c-0.6,0.4-0.8,1.1-0.7,1.7c0.3,1.3,0.7,2.6,1.2,3.8c0.2,0.6,0.9,1,1.5,1l6.5-0.2c0.5,0.8,1.1,1.6,1.7,2.3l-2.2,6.1   c-0.2,0.6,0,1.3,0.5,1.8c1,0.9,2.1,1.6,3.2,2.3c0.6,0.4,1.3,0.3,1.8-0.1l5.1-3.9c0.9,0.4,2.8,0.9,2.8,0.9l1.8,6.1   c0.2,0.7,0.8,1.1,1.5,1.1c1,0,2.9,0,3.9,0c0.7,0,1.3-0.5,1.5-1.1l1.8-6.1c0,0,1.9-0.5,2.8-0.9l5.1,3.9c0.5,0.4,1.3,0.4,1.8,0.1   c1.1-0.7,2.2-1.5,3.2-2.3c0.5-0.4,0.7-1.1,0.5-1.8l-2.2-6.1c0.6-0.7,1.2-1.5,1.7-2.3l6.5,0.2c0.7,0,1.3-0.4,1.5-1   c0.5-1.2,0.9-2.5,1.2-3.8c0.2-0.6-0.1-1.3-0.7-1.7l-5.3-3.6c0-0.5,0.1-1,0.1-1.5c0-0.5,0-0.9-0.1-1.5l5.3-3.6   C287.7,97.4,287.9,96.7,287.8,96.1z M260.4,117.9c-8.3,0-15.1-6.8-15.1-15.1c0-8.3,6.8-15.1,15.1-15.1c8.3,0,15.1,6.8,15.1,15.1   C275.5,111.2,268.7,117.9,260.4,117.9z"/><path d="M260.4,90.5c-6.8,0-12.4,5.6-12.4,12.4c0,6.8,5.6,12.4,12.4,12.4c6.8,0,12.4-5.6,12.4-12.4   C272.8,96,267.2,90.5,260.4,90.5z"/><path d="M73.9,172.2h15.7c3.6,0,6.5-2.9,6.5-6.5v-16.4c0-3.6-2.9-6.5-6.5-6.5H73.9c-3.6,0-6.5,2.9-6.5,6.5v16.4   C67.4,169.3,70.4,172.2,73.9,172.2z M74.1,149.6h15.3v16H74.1V149.6z"/><path d="M108,156.1h38.2c1.7,0,3.2-1.8,3.2-3.9s-1.4-3.9-3.2-3.9H108c-1.7,0-3.2,1.8-3.2,3.9   S106.2,156.1,108,156.1z"/><path d="M108,166.9h38.2c1.7,0,3.2-1.8,3.2-3.9c0-2.2-1.4-3.9-3.2-3.9H108c-1.7,0-3.2,1.8-3.2,3.9   C104.8,165.2,106.2,166.9,108,166.9z"/><path d="M73.9,137.2h15.7c3.6,0,6.5-2.9,6.5-6.5v-16.4c0-3.6-2.9-6.5-6.5-6.5H73.9c-3.6,0-6.5,2.9-6.5,6.5v16.4   C67.4,134.3,70.4,137.2,73.9,137.2z M74.1,114.6h15.3v16H74.1V114.6z"/><path d="M108,121.1h38.2c1.7,0,3.2-1.8,3.2-3.9s-1.4-3.9-3.2-3.9H108c-1.7,0-3.2,1.8-3.2,3.9   S106.2,121.1,108,121.1z"/><path d="M108,131.9h38.2c1.7,0,3.2-1.8,3.2-3.9c0-2.2-1.4-3.9-3.2-3.9H108c-1.7,0-3.2,1.8-3.2,3.9   C104.8,130.2,106.2,131.9,108,131.9z"/><path d="M73.9,101.5h15.7c3.6,0,6.5-2.9,6.5-6.5V78.7c0-3.6-2.9-6.5-6.5-6.5H73.9c-3.6,0-6.5,2.9-6.5,6.5V95   C67.4,98.6,70.4,101.5,73.9,101.5z M74.1,78.9h15.3v16H74.1V78.9z"/><path d="M108,85.4h38.2c1.7,0,3.2-1.8,3.2-3.9c0-2.2-1.4-3.9-3.2-3.9H108c-1.7,0-3.2,1.8-3.2,3.9   C104.8,83.6,106.2,85.4,108,85.4z"/><path d="M108,96.2h38.2c1.7,0,3.2-1.8,3.2-3.9c0-2.2-1.4-3.9-3.2-3.9H108c-1.7,0-3.2,1.8-3.2,3.9   C104.8,94.5,106.2,96.2,108,96.2z"/><path d="M358.1,137.6l-6.9-4.7c0-0.7,0.1-1.3,0.1-1.9c0-0.6,0-1.2-0.1-1.9l6.9-4.7c0.7-0.5,1.1-1.4,0.9-2.2   c-0.4-1.7-1-3.4-1.6-4.9c-0.3-0.8-1.1-1.3-2-1.3l-8.4,0.2c-0.7-1.1-1.4-2.1-2.2-3l2.8-7.9c0.3-0.8,0-1.7-0.6-2.3   c-1.3-1.1-2.7-2.1-4.2-3c-0.7-0.5-1.7-0.4-2.4,0.1l-6.6,5.1c-1.1-0.5-2.3-0.8-3.6-1.2l-2.4-8c-0.2-0.9-1-1.4-1.9-1.5   c-1.3,0-3.8,0-5.1,0c-0.9,0-1.6,0.6-1.9,1.5l-2.4,8c-1.2,0.3-2.4,0.7-3.6,1.2l-6.6-5.1c-0.7-0.5-1.6-0.6-2.4-0.1   c-1.5,0.9-2.9,1.9-4.2,3.1c-0.7,0.6-0.9,1.5-0.6,2.3l2.8,7.9c-0.8,1-1.5,2-2.2,3l-8.4-0.2c-0.9,0-1.7,0.5-2,1.3   c-0.6,1.5-1.2,3.2-1.6,4.9c-0.2,0.8,0.1,1.7,0.8,2.2l6.9,4.7c0,0.7-0.1,1.3-0.1,1.9c0,0.6,0,1.2,0.1,1.9l-6.9,4.7   c-0.7,0.5-1.1,1.4-0.8,2.2c0.4,1.7,1,3.4,1.6,4.9c0.3,0.8,1.1,1.3,2,1.3l8.4-0.2c0.7,1.1,1.4,2.1,2.2,3l-2.8,7.9   c-0.3,0.8,0,1.7,0.6,2.3c1.3,1.1,2.7,2.1,4.2,3.1c0.7,0.5,1.7,0.4,2.4-0.1l6.6-5.1c1.1,0.5,3.6,1.2,3.6,1.2l2.3,7.9   c0.3,0.9,1,1.4,1.9,1.5c1.3,0,3.8,0,5.1,0c0.9,0,1.6-0.6,1.9-1.5l2.3-7.9c0,0,2.5-0.7,3.6-1.2l6.6,5.1c0.7,0.5,1.6,0.6,2.4,0.1   c1.5-0.9,2.9-1.9,4.2-3.1c0.7-0.6,0.9-1.5,0.6-2.3l-2.8-7.9c0.8-1,1.5-2,2.2-3l8.4,0.2c0.9,0,1.7-0.5,2-1.3   c0.6-1.5,1.2-3.2,1.6-4.9C359.2,138.9,358.8,138,358.1,137.6z M323.4,150.6c-10.8,0-19.6-8.8-19.6-19.6s8.8-19.6,19.6-19.6   c10.8,0,19.6,8.8,19.6,19.6S334.2,150.6,323.4,150.6z"/><path d="M323.4,114.9c-8.9,0-16.1,7.2-16.1,16.1c0,8.9,7.2,16.1,16.1,16.1c8.9,0,16.1-7.2,16.1-16.1   C339.5,122.1,332.3,114.9,323.4,114.9z"/><path d="M285.7,147.6c-0.2-0.9-0.5-1.8-0.8-2.6c-0.2-0.4-0.6-0.7-1-0.7l-4.3,0.1c-0.3-0.5-0.7-1.1-1.1-1.6   l1.4-4.1c0.1-0.4,0-0.9-0.3-1.2c-0.7-0.6-1.4-1.1-2.2-1.6c-0.4-0.2-0.9-0.2-1.2,0.1l-3.4,2.6c-0.6-0.2-1.2-0.4-1.9-0.6l-1.2-4.1   c-0.1-0.4-0.5-0.7-1-0.8c-0.7,0-1.9,0-2.6,0c-0.5,0-0.8,0.3-1,0.8l-1.2,4.1c-0.6,0.2-1.3,0.4-1.9,0.6l-3.4-2.6   c-0.4-0.3-0.9-0.3-1.2-0.1c-0.8,0.5-1.5,1-2.2,1.6c-0.3,0.3-0.5,0.8-0.3,1.2l1.4,4.1c-0.4,0.5-0.8,1-1.1,1.6l-4.3-0.1   c-0.4,0-0.9,0.3-1,0.7c-0.3,0.8-0.6,1.7-0.8,2.5c-0.1,0.4,0.1,0.9,0.4,1.1l3.6,2.4c0,0.3,0,0.7,0,1c0,0.3,0,0.6,0,1l-3.6,2.4   c-0.4,0.3-0.5,0.7-0.4,1.1c0.2,0.9,0.5,1.8,0.8,2.5c0.2,0.4,0.6,0.7,1,0.7l4.3-0.1c0.3,0.5,0.7,1.1,1.1,1.6l-1.4,4.1   c-0.2,0.4,0,0.9,0.3,1.2c0.7,0.6,1.4,1.1,2.2,1.6c0.4,0.2,0.9,0.2,1.2-0.1l3.4-2.6c0.6,0.2,1.9,0.6,1.9,0.6l1.2,4.1   c0.1,0.4,0.5,0.7,1,0.8c0.7,0,1.9,0,2.6,0c0.5,0,0.9-0.3,1-0.8l1.2-4.1c0,0,1.3-0.4,1.9-0.6l3.4,2.6c0.4,0.3,0.8,0.3,1.2,0.1   c0.8-0.5,1.5-1,2.2-1.6c0.3-0.3,0.5-0.8,0.3-1.2l-1.4-4.1c0.4-0.5,0.8-1,1.1-1.6l4.3,0.1c0.5,0,0.9-0.3,1-0.7   c0.3-0.8,0.6-1.7,0.8-2.5c0.1-0.4-0.1-0.9-0.4-1.1l-3.6-2.4c0-0.3,0-0.7,0-1c0-0.3,0-0.6,0-1l3.6-2.4   C285.7,148.5,285.8,148,285.7,147.6z M267.4,162.3c-5.6,0-10.1-4.5-10.1-10.1c0-5.6,4.5-10.1,10.1-10.1c5.6,0,10.1,4.5,10.1,10.1   C277.5,157.8,272.9,162.3,267.4,162.3z"/><path d="M267.4,143.9c-4.6,0-8.3,3.7-8.3,8.3c0,4.6,3.7,8.3,8.3,8.3s8.3-3.7,8.3-8.3   C275.7,147.6,271.9,143.9,267.4,143.9z"/><path d="M148.8,206.1H64.6c-7.1,0-12.9,5.8-12.9,12.9v46.8c0,7.1,5.8,12.9,12.9,12.9h84.2   c7.1,0,12.9-5.8,12.9-12.9V219C161.7,211.9,155.9,206.1,148.8,206.1z"/><path d="M148.8,291.5H64.6c-7.1,0-12.9,5.8-12.9,12.9v46.8c0,7.1,5.8,12.9,12.9,12.9h84.2   c7.1,0,12.9-5.8,12.9-12.9v-46.8C161.7,297.3,155.9,291.5,148.8,291.5z"/><path d="M148.8,377H64.6c-7.1,0-12.9,5.8-12.9,12.9v46.8c0,7.1,5.8,12.9,12.9,12.9h84.2c7.1,0,12.9-5.8,12.9-12.9   v-46.8C161.7,382.8,155.9,377,148.8,377z"/><path d="M148.8,462.5H64.6c-7.1,0-12.9,5.8-12.9,12.9v46.8c0,7.1,5.8,12.9,12.9,12.9h84.2   c7.1,0,12.9-5.8,12.9-12.9v-46.8C161.7,468.3,155.9,462.5,148.8,462.5z"/><path d="M254.4,278.7h84.2c7.1,0,12.9-5.8,12.9-12.9V219c0-7.1-5.8-12.9-12.9-12.9h-84.2   c-7.1,0-12.9,5.8-12.9,12.9v46.8C241.5,272.9,247.3,278.7,254.4,278.7z"/><path d="M254.4,364.2h84.2c7.1,0,12.9-5.8,12.9-12.9v-46.8c0-7.1-5.8-12.9-12.9-12.9h-84.2   c-7.1,0-12.9,5.8-12.9,12.9v46.8C241.5,358.3,247.3,364.2,254.4,364.2z"/><path d="M254.4,449.6h84.2c7.1,0,12.9-5.8,12.9-12.9v-46.8c0-7.1-5.8-12.9-12.9-12.9h-84.2   c-7.1,0-12.9,5.8-12.9,12.9v46.8C241.5,443.8,247.3,449.6,254.4,449.6z"/><path d="M254.4,535.1h84.2c7.1,0,12.9-5.8,12.9-12.9v-46.8c0-7.1-5.8-12.9-12.9-12.9h-84.2   c-7.1,0-12.9,5.8-12.9,12.9v46.8C241.5,529.3,247.3,535.1,254.4,535.1z"/><path d="M525.4,206.1h-84.2c-7.1,0-12.9,5.8-12.9,12.9v46.8c0,7.1,5.8,12.9,12.9,12.9h84.2   c7.1,0,12.9-5.8,12.9-12.9V219C538.3,211.9,532.5,206.1,525.4,206.1z"/><path d="M525.4,291.5h-84.2c-7.1,0-12.9,5.8-12.9,12.9v46.8c0,7.1,5.8,12.9,12.9,12.9h84.2   c7.1,0,12.9-5.8,12.9-12.9v-46.8C538.3,297.3,532.5,291.5,525.4,291.5z"/><path d="M525.4,377h-84.2c-7.1,0-12.9,5.8-12.9,12.9v46.8c0,7.1,5.8,12.9,12.9,12.9h84.2   c7.1,0,12.9-5.8,12.9-12.9v-46.8C538.3,382.8,532.5,377,525.4,377z"/><path d="M148.8,547.9H64.6c-7.1,0-12.9,5.8-12.9,12.9v46.8c0,7.1,5.8,12.9,12.9,12.9h84.2   c7.1,0,12.9-5.8,12.9-12.9v-46.8C161.7,553.7,155.9,547.9,148.8,547.9z"/><path d="M148.8,633.4H64.6c-7.1,0-12.9,5.8-12.9,12.9v46.8c0,7.1,5.8,12.9,12.9,12.9h84.2   c7.1,0,12.9-5.8,12.9-12.9v-46.8C161.7,639.2,155.9,633.4,148.8,633.4z"/></g><text x="0" y="856.9" fill="#000000" font-size="5px" font-weight="bold" font-family="'Helvetica Neue', Helvetica, Arial-Unicode, Arial, Sans-serif">Created by Annette Spithoven</text><text x="0" y="861.9" fill="#000000" font-size="5px" font-weight="bold" font-family="'Helvetica Neue', Helvetica, Arial-Unicode, Arial, Sans-serif">from the Noun Project</text></svg>